<svg version="1.1" xmlns="http://www.w3.org/2000/svg" viewBox="0 0 560 540" width="560" height="540">
  <!-- svg-source:excalidraw -->
  
  <defs>
    <style>
      @font-face {
        font-family: "Virgil";
        src: url("https://excalidraw.com/Virgil.woff2");
      }
      @font-face {
        font-family: "Cascadia";
        src: url("https://excalidraw.com/Cascadia.woff2");
      }
    </style>
  </defs>
  <g stroke-linecap="round" transform="translate(10 250) rotate(0 90 60)"><path d="M-2.09 2.82 L180.87 0.02 L180.57 116.7 L-1.96 122.62" stroke="none" stroke-width="0" fill="#ced4da"></path><path d="M3.72 0.36 C42.72 -1.65, 77.17 2.99, 177.04 1.92 M-0.84 -0.29 C46.95 3.34, 95.52 2.62, 179.01 0.27 M182.64 0.14 C176.55 42.49, 179.64 90.54, 183.65 119.96 M181.75 -0.99 C176.85 47.08, 177.92 89.15, 178.28 118 M183.88 121.95 C129.33 123.28, 77.99 123.67, 3.12 117.39 M180.07 121.04 C112.91 120.89, 44.61 121.34, -1.26 120.8 M-1.14 118.02 C-0.36 91.33, 3.79 70.27, -1.58 -0.11 M1.79 118.08 C-1.59 86.12, -3.8 54.73, -0.2 0.72" stroke="#000000" stroke-width="4" fill="none"></path></g><g transform="translate(70 290) rotate(0 30.5 12.5)"><text x="0" y="18" font-family="Virgil, Segoe UI Emoji" font-size="20px" fill="#000000" text-anchor="start" style="white-space: pre;" direction="ltr">server</text></g><g stroke-linecap="round" transform="translate(350 110) rotate(0 100 60)"><path d="M-2.08 2.92 L200.98 -3 L201.11 118.61 L-3.4 120.25" stroke="none" stroke-width="0" fill="#fd7e14"></path><path d="M0.02 0.51 C46.58 -2.55, 101.45 -3.26, 199.63 -0.81 M1.39 -0.99 C78.13 -0.05, 154.71 0.65, 198.9 -0.62 M202.89 -0.29 C197.59 43.61, 200.36 90.8, 201.69 122.59 M199.92 1.85 C202.98 26.63, 201.02 53.68, 198 120.71 M196.46 121.37 C135.33 124.26, 79.14 123.91, 2.59 119.88 M198.64 119.79 C133.24 118.32, 67.54 119.21, -0.22 120.48 M3.2 122.01 C2.3 97.86, 2.74 72.43, -1.61 0.36 M-1.22 121.04 C-1.05 84.47, 0.03 46.99, 1.29 -1.04" stroke="#000000" stroke-width="4" fill="none"></path></g><g transform="translate(430 150) rotate(0 25.5 12.5)"><text x="0" y="18" font-family="Virgil, Segoe UI Emoji" font-size="20px" fill="#000000" text-anchor="start" style="white-space: pre;" direction="ltr">./spin</text></g><g stroke-linecap="round" transform="translate(350 250) rotate(0 100 60)"><path d="M0.98 -3 L201.11 -1.39 L196.6 120.25 L-3.33 118.47" stroke="none" stroke-width="0" fill="#fd7e14"></path><path d="M-2.97 -1.77 C66.71 -2.99, 128.33 -1.32, 203.12 3.11 M0.78 -1.66 C51.07 1.01, 101.02 1.36, 201.3 0.39 M197.07 -1.03 C201.57 47.92, 203.42 95.38, 197.19 122.34 M201.58 -0.94 C199.53 31.43, 197.91 66.49, 200.15 118.04 M196.8 120.76 C122.61 121.77, 43.65 121.25, 1.25 121.42 M200.19 120.88 C155.71 121.36, 108.32 120.06, -1.56 119.52 M1.65 123.47 C0.17 86.57, -3.54 46.23, 0.47 0.43 M-0.8 121.89 C1.75 84.77, 2.76 44.85, -1.04 1.46" stroke="#000000" stroke-width="4" fill="none"></path></g><g transform="translate(450 290) rotate(0 8 12.5)"><text x="0" y="18" font-family="Virgil, Segoe UI Emoji" font-size="20px" fill="#000000" text-anchor="start" style="white-space: pre;" direction="ltr">./</text></g><g stroke-linecap="round" transform="translate(350 410) rotate(0 100 60)"><path d="M1.11 -1.39 L196.6 0.25 L196.67 118.47 L-0.53 119.9" stroke="none" stroke-width="0" fill="#fd7e14"></path><path d="M2.36 -2.48 C62.47 0.96, 128.81 4.88, 198.39 2.78 M0 -0.96 C47.93 2.7, 99.37 3.71, 201.56 1.3 M199.83 1.53 C199.93 37.73, 195.43 72.61, 198.96 119.84 M199.62 -1.46 C199.9 47.79, 202.04 92.2, 201.95 118.04 M202.08 120.4 C134.97 120.64, 66.01 122.18, -2.57 117.28 M201.44 121.78 C142.15 122.25, 83.18 121.28, 0.16 121.44 M2.09 123.64 C-2.61 78.34, -0.52 36.37, 0.35 -2.44 M0.29 121.83 C2.25 76.72, -0.09 36.97, 0.49 -1.5" stroke="#000000" stroke-width="4" fill="none"></path></g><g transform="translate(370 450) rotate(0 79 12.5)"><text x="0" y="18" font-family="Virgil, Segoe UI Emoji" font-size="20px" fill="#000000" text-anchor="start" style="white-space: pre;" direction="ltr">http://127.0.0.1/</text></g><g stroke-linecap="round"><g transform="translate(189.53084778711218 307.7118467090878) rotate(0 74.57828504785493 -67.72983748010564)"><path d="M2.54 2.25 C27.37 -20.41, 124.93 -114.68, 148.69 -137.71 M0.47 1.01 C25.12 -21.15, 122.34 -112.58, 147.42 -134.86" stroke="#000000" stroke-width="4" fill="none"></path></g><g transform="translate(189.53084778711218 307.7118467090878) rotate(0 74.57828504785493 -67.72983748010564)"><path d="M145.61 -136.76 L144.58 -123.26 L134.65 -130.59 L147.9 -137.29" stroke="none" stroke-width="0" fill="#000000" fill-rule="evenodd"></path><path d="M149.83 -132.95 C144.06 -132.68, 144.3 -128.02, 144.32 -119.4 M147.88 -134.8 C145.01 -129.35, 143.53 -123.46, 142.15 -121.61 M142.21 -120.26 C136.8 -122.55, 134.98 -125.88, 135.38 -130.57 M142.05 -122.26 C137.34 -123.73, 134.63 -128.7, 134.3 -130.98 M135.84 -128.78 C138.71 -132.76, 143.56 -131.04, 145.86 -135.41 M134.2 -130.58 C136.4 -132.47, 139.9 -132.92, 147.21 -136.24 M147.42 -134.86 C147.42 -134.86, 147.42 -134.86, 147.42 -134.86 M147.42 -134.86 C147.42 -134.86, 147.42 -134.86, 147.42 -134.86" stroke="#000000" stroke-width="4" fill="none"></path></g></g><g stroke-linecap="round"><g transform="translate(191 310.003861896189) rotate(0 78.38931889440892 0.8035909782803685)"><path d="M2.24 -1.39 C28.02 -1.39, 130.59 1.76, 156.77 1.9 M0 4.02 C25.15 3.01, 127.68 -2.06, 154.09 -2.41" stroke="#000000" stroke-width="4" fill="none"></path></g><g transform="translate(191 310.003861896189) rotate(0 78.38931889440892 0.8035909782803685)"><path d="M153.41 1.33 L141.65 5.29 L138.04 -9.13 L153.78 -5.06" stroke="none" stroke-width="0" fill="#000000" fill-rule="evenodd"></path><path d="M152.59 -3.3 C150.56 2.19, 142.93 4.19, 143.47 5.27 M155.35 -1.82 C149.24 -0.71, 144.5 2.31, 139.62 4.31 M140.61 4.3 C141.45 -0.16, 141.21 -3.94, 137.77 -9.18 M141.16 3.16 C139.31 0.64, 141.52 -3.05, 141.23 -8.03 M140.46 -9.69 C144.71 -4.57, 146.78 -6.9, 152.49 -2.26 M141.61 -9.35 C142.27 -6.53, 145.62 -6.33, 153.14 -1.91 M154.09 -2.41 C154.09 -2.41, 154.09 -2.41, 154.09 -2.41 M154.09 -2.41 C154.09 -2.41, 154.09 -2.41, 154.09 -2.41" stroke="#000000" stroke-width="4" fill="none"></path></g></g><g stroke-linecap="round"><g transform="translate(191 311.03128987893024) rotate(0 76.35496047917513 80.80043795649493)"><path d="M-0.53 2.39 C25.68 28.83, 131.39 134.29, 156.97 160.39 M-4.26 1.21 C21.81 26.63, 128.82 129.11, 156.01 155.88" stroke="#000000" stroke-width="4" fill="none"></path></g><g transform="translate(191 311.03128987893024) rotate(0 76.35496047917513 80.80043795649493)"><path d="M156.41 157.35 L145.38 147.16 L149.65 142.26 L157.65 155.83" stroke="none" stroke-width="0" fill="#000000" fill-rule="evenodd"></path><path d="M158.57 158.4 C152.84 152.6, 147.22 151.9, 142.25 150.81 M156.69 155.34 C151.06 154.44, 148.29 152.98, 140.71 150.43 M143.41 151.01 C142.42 148.89, 145.62 143.74, 148.47 139.93 M142.69 149.76 C144.13 147.28, 148.03 144.57, 151.55 142.83 M149.36 143.61 C152.07 143.93, 153.95 149.39, 156.9 154.12 M151.01 142.02 C151.65 147.28, 153.01 151.41, 155.08 155.94 M156.01 155.88 C156.01 155.88, 156.01 155.88, 156.01 155.88 M156.01 155.88 C156.01 155.88, 156.01 155.88, 156.01 155.88" stroke="#000000" stroke-width="4" fill="none"></path></g></g><g stroke-linecap="round" transform="translate(10 10) rotate(0 100 60)"><path d="M0.21 1.82 L196.17 0.64 L198.78 117.21 L3.7 120.67" stroke="none" stroke-width="0" fill="#4c6ef5"></path><path d="M0.53 2.98 C70.09 -4.63, 143.79 1.78, 199.16 -0.95 M1.03 0.75 C53.92 -1.88, 109.68 -2.67, 200.54 -1.27 M199.96 0.92 C199.21 37.3, 195.57 71.92, 196.15 123.61 M200.82 -0.56 C200.59 46.46, 198.74 92.73, 201.92 118.76 M203.51 116.96 C141.62 119.69, 82.08 119.41, 1.32 120.55 M200.31 120.93 C143.87 120.92, 83.95 121.42, 0.88 118.93 M3.93 120.56 C4.27 86.13, 1.49 47.63, -1.91 1.51 M-1.7 121.92 C-2.23 75.4, -2.95 29.81, -1.9 0.85" stroke="#000000" stroke-width="4" fill="none"></path></g><g transform="translate(70 50) rotate(0 49 12.5)"><text x="0" y="18" font-family="Virgil, Segoe UI Emoji" font-size="20px" fill="#fff" text-anchor="start" style="white-space: pre;" direction="ltr">react app</text></g><g stroke-linecap="round"><g transform="translate(83.62803951684145 133.08099986866117) rotate(0 -23.31073092169845 58.094816499846985)"><path d="M2.34 -0.4 C-6.4 7.32, -52.03 25.94, -51.25 45.52 C-50.48 65.1, -2.27 104.63, 7.01 117.1 M0.16 -3.08 C-9.07 5.09, -54.71 28.18, -53.63 48.57 C-52.55 68.96, -3.12 108.18, 6.66 119.27" stroke="#000000" stroke-width="4" fill="none"></path></g><g transform="translate(83.62803951684145 133.08099986866117) rotate(0 -23.31073092169845 58.094816499846985)"><path d="M6.16 120.44 L-7.6 112.94 L-0.47 104.58 L3.88 123.15" stroke="none" stroke-width="0" fill="#000000" fill-rule="evenodd"></path><path d="M6.23 119 C0.7 120.75, -4.87 116.35, -5.97 115.76 M5.89 120.69 C0.2 118.1, -4.34 115.44, -6.55 115.1 M-8.34 112.07 C-4.95 112.72, -3.62 108.66, 0.04 104.17 M-6.75 114.62 C-3.96 110.09, -0.15 107.92, 1.77 105.04 M0.89 102.55 C0.58 105.51, 5.07 111.53, 8.02 116.4 M2.57 105.56 C1.9 108.37, 4.48 113.84, 7.03 117.96 M6.66 119.27 C6.66 119.27, 6.66 119.27, 6.66 119.27 M6.66 119.27 C6.66 119.27, 6.66 119.27, 6.66 119.27" stroke="#000000" stroke-width="4" fill="none"></path></g></g><g stroke-linecap="round"><g transform="translate(189.34861421493315 127.569439875055) rotate(172.4599163280809 -24.181116262150226 60.443406649726484)"><path d="M1.84 0.66 C-6.49 8.42, -50.41 24.33, -50.13 44.06 C-49.85 63.8, -5.16 106.47, 3.53 119.09 M-0.6 -1.45 C-9.22 6.79, -52.21 25.69, -51.89 46.33 C-51.58 66.96, -7.59 109.58, 1.29 122.33" stroke="#000000" stroke-width="4" fill="none"></path></g><g transform="translate(189.34861421493315 127.569439875055) rotate(172.4599163280809 -24.181116262150226 60.443406649726484)"><path d="M4.26 121.58 L-11.28 115.19 L-4.41 104.2 L-2.23 119.97" stroke="none" stroke-width="0" fill="#000000" fill-rule="evenodd"></path><path d="M2 123.27 C-5.32 119.8, -6.38 116.35, -11.35 116.18 M0.28 121.11 C-1.56 119.9, -8.09 117.8, -12.69 117.51 M-13.74 114.65 C-9.12 114.49, -7.53 110.74, -4.52 108.15 M-11.99 115.95 C-9.11 114.53, -7.21 111.78, -1.6 108.11 M-2.43 105.26 C-0.53 109.82, 1.03 115.54, 1.89 121 M-2.77 107.07 C-1.36 111.14, 0.71 115.19, 0.95 123.49 M1.29 122.33 C1.29 122.33, 1.29 122.33, 1.29 122.33 M1.29 122.33 C1.29 122.33, 1.29 122.33, 1.29 122.33" stroke="#000000" stroke-width="4" fill="none"></path></g></g></svg>